# xmcd CD database file
#
# Track frame offsets:
#	150
#	17570
#	34070
#	52215
#	74170
#	89812
#	104792
#	124080
#	141012
#	152350
#	164182
#
# Disc length: 2342 seconds
#
# Revision: 1
# Processed by: cddbd v1.5.1PL0 Copyright (c) Steve Scherf et al.
# Submitted via: CDex 1.51
#
DISCID=a709240b
DTITLE=ASA Brebner - Best NO MOney Can BUY
DYEAR=2001
DGENRE=Country
TTITLE0=The Roses I never Bought You
TTITLE1=Reasons For Murder
TTITLE2=You Stole My Woman
TTITLE3=Forbidden Love
TTITLE4=Too Many ASSholes
TTITLE5=Break my own heart
TTITLE6=Won't Wait for Saturday
TTITLE7=Nice To Me
TTITLE8=Out of the Frying Pan (into Desire)
TTITLE9=Go Downtown
TTITLE10=The Best No Money Can buy
EXTD=YEAR: 2001
EXTT0=
EXTT1=
EXTT2=
EXTT3=
EXTT4=
EXTT5=
EXTT6=
EXTT7=
EXTT8=
EXTT9=
EXTT10=
PLAYORDER=
